<?xml version="1.0" standalone="no"?><!DOCTYPE svg PUBLIC "-//W3C//DTD SVG 1.1//EN" "http://www.w3.org/Graphics/SVG/1.1/DTD/svg11.dtd"><svg t="1681435653297" class="icon" viewBox="0 0 1024 1024" version="1.1" xmlns="http://www.w3.org/2000/svg" p-id="4183" xmlns:xlink="http://www.w3.org/1999/xlink" width="200" height="200"><path d="M611.01 207.323c-15.928-14.957-37.545-23.535-59.31-23.535-21.035 0-40.625 7.585-56.651 21.935l-75.773 67.85a150.623 150.623 0 0 1-100.61 38.461c-59.703 0-108.274 48.571-108.274 108.274v183.386c0 59.702 48.571 108.273 108.274 108.273a150.62 150.62 0 0 1 100.609 38.461l75.774 67.849c16.025 14.35 35.614 21.936 56.65 21.937h0.005c21.764 0 43.382-8.578 59.308-23.533 17.151-16.106 26.597-38.164 26.597-62.109V269.43c-0.001-23.944-9.447-46-26.599-62.107zM597.608 754.57c0 16.384-7.602 26.962-13.979 32.95-8.59 8.066-20.228 12.692-31.929 12.692-11.032-0.001-21.396-4.059-29.969-11.735l-75.775-67.85c-35.045-31.38-80.252-48.661-127.292-48.661-37.646 0-68.274-30.627-68.274-68.273V420.307c0-37.646 30.627-68.274 68.274-68.274 47.041 0 92.247-17.282 127.293-48.661l75.774-67.85c8.573-7.677 18.937-11.735 29.968-11.735 22.566 0 45.908 17.072 45.908 45.643v485.14zM710.34 425.763c-11.046 0-20 8.954-20 20v132.473c0 11.046 8.954 20 20 20s20-8.954 20-20V445.763c0-11.046-8.954-20-20-20zM793.608 314.107c-11.046 0-20 8.954-20 20v355.785c0 11.046 8.954 20 20 20s20-8.954 20-20V334.107c0-11.045-8.954-20-20-20z" p-id="4184"></path></svg>